<?xml version="1.0" encoding="UTF-8" standalone="no"?>
<!-- Created with Inkscape (http://www.inkscape.org/) -->

<svg
   xmlns:dc="http://purl.org/dc/elements/1.1/"
   xmlns:cc="http://creativecommons.org/ns#"
   xmlns:rdf="http://www.w3.org/1999/02/22-rdf-syntax-ns#"
   xmlns:svg="http://www.w3.org/2000/svg"
   xmlns="http://www.w3.org/2000/svg"
   xmlns:sodipodi="http://sodipodi.sourceforge.net/DTD/sodipodi-0.dtd"
   xmlns:inkscape="http://www.inkscape.org/namespaces/inkscape"
   width="503.43198"
   height="253.06662"
   viewBox="0 0 133.19971 66.957211"
   version="1.1"
   id="svg37270"
   inkscape:version="0.92.4 (f8dce91, 2019-08-02)"
   sodipodi:docname="yocto-logo-bg-dark.svg"
   inkscape:export-filename="/home/sisi/blog/myblog/assets/images/yocto-logo.png"
   inkscape:export-xdpi="96"
   inkscape:export-ydpi="96">
  <defs
     id="defs37264">
    <clipPath
       clipPathUnits="userSpaceOnUse"
       id="clipPath37114">
      <path
         d="M 371.52,327.227 H 674.094 V 444.24 H 371.52 Z"
         id="path37112"
         inkscape:connector-curvature="0" />
    </clipPath>
  </defs>
  <sodipodi:namedview
     id="base"
     pagecolor="#000000"
     bordercolor="#666666"
     borderopacity="1.0"
     inkscape:pageopacity="0"
     inkscape:pageshadow="2"
     inkscape:zoom="1.979899"
     inkscape:cx="228.30086"
     inkscape:cy="149.85794"
     inkscape:document-units="mm"
     inkscape:current-layer="g37110"
     showgrid="false"
     units="px"
     fit-margin-top="50"
     fit-margin-right="50"
     fit-margin-left="50"
     fit-margin-bottom="50"
     inkscape:window-width="1850"
     inkscape:window-height="1016"
     inkscape:window-x="70"
     inkscape:window-y="27"
     inkscape:window-maximized="1" />
  <metadata
     id="metadata37267">
    <rdf:RDF>
      <cc:Work
         rdf:about="">
        <dc:format>image/svg+xml</dc:format>
        <dc:type
           rdf:resource="http://purl.org/dc/dcmitype/StillImage" />
        <dc:title></dc:title>
      </cc:Work>
    </rdf:RDF>
  </metadata>
  <g
     inkscape:label="Layer 1"
     inkscape:groupmode="layer"
     id="layer1"
     transform="translate(-34.697764,-25.396397)">
    <g
       clip-path="url(#clipPath37114)"
       id="g37110"
       transform="matrix(0.35277777,0,0,-0.35277777,-83.137066,195.34356)">
      <g
         transform="translate(427.3239,424.2424)"
         id="g37116"
         style="fill:#ffffff">
        <path
           inkscape:connector-curvature="0"
           id="path37118"
           style="fill:#ffffff;fill-opacity:1;fill-rule:nonzero;stroke:none"
           d="M 0,0 -8.444,4.784 -25.45,-29.677 -43.591,4.784 -52.144,0 -30.582,-40.508 c -0.156,-0.384 -0.65,-1.445 -1.482,-3.201 -0.842,-1.675 -1.711,-3.348 -2.626,-5.024 -1.601,-2.89 -3.229,-5.242 -4.903,-7.071 -1.674,-1.903 -3.385,-3.421 -5.142,-4.564 -1.746,-1.144 -3.567,-2.013 -5.47,-2.625 -1.829,-0.606 -3.696,-1.099 -5.599,-1.484 l 3.888,-8.105 c 1.217,0.156 2.845,0.541 4.904,1.144 2.131,0.531 4.446,1.563 6.962,3.083 2.506,1.518 5.058,3.687 7.638,6.503 2.672,2.819 5.141,6.542 7.419,11.179 L 0,0" />
      </g>
      <g
         transform="translate(473.4848,399.021)"
         id="g37120"
         style="fill:#ffffff">
        <path
           inkscape:connector-curvature="0"
           id="path37122"
           style="fill:#ffffff;fill-opacity:1;fill-rule:nonzero;stroke:none"
           d="m 0,0 c 0,-2.662 -0.457,-5.133 -1.371,-7.419 -0.916,-2.278 -2.169,-4.264 -3.761,-5.929 -1.527,-1.6 -3.348,-2.89 -5.48,-3.888 -2.058,-0.905 -4.3,-1.362 -6.733,-1.362 -2.433,0 -4.72,0.457 -6.843,1.362 -2.131,0.998 -3.997,2.288 -5.598,3.888 -1.519,1.665 -2.735,3.651 -3.65,5.929 -0.915,2.286 -1.372,4.757 -1.372,7.419 0,2.662 0.457,5.132 1.372,7.417 0.915,2.28 2.131,4.256 3.65,5.931 1.601,1.674 3.467,2.972 5.598,3.878 2.123,0.998 4.41,1.492 6.843,1.492 2.433,0 4.675,-0.494 6.733,-1.492 2.132,-0.906 3.953,-2.204 5.48,-3.878 C -3.54,11.673 -2.287,9.697 -1.371,7.417 -0.457,5.132 0,2.662 0,0 m 10.612,0 c 0,3.952 -0.722,7.648 -2.168,11.069 -1.372,3.422 -3.311,6.386 -5.818,8.901 -2.516,2.507 -5.48,4.446 -8.902,5.818 -3.42,1.444 -7.116,2.169 -11.069,2.169 -3.951,0 -7.647,-0.725 -11.069,-2.169 -3.421,-1.372 -6.394,-3.311 -8.901,-5.818 -2.506,-2.515 -4.491,-5.479 -5.937,-8.901 C -44.698,7.648 -45.42,3.952 -45.42,0 c 0,-3.952 0.722,-7.648 2.168,-11.069 1.446,-3.349 3.431,-6.276 5.937,-8.783 2.507,-2.516 5.48,-4.491 8.901,-5.937 3.422,-1.372 7.118,-2.059 11.069,-2.059 3.953,0 7.649,0.687 11.069,2.059 3.422,1.446 6.386,3.421 8.902,5.937 2.507,2.507 4.446,5.434 5.818,8.783 1.446,3.421 2.168,7.117 2.168,11.069" />
      </g>
      <g
         transform="translate(623.6151,399.021)"
         id="g37124"
         style="fill:#ffffff">
        <path
           inkscape:connector-curvature="0"
           id="path37126"
           style="fill:#ffffff;fill-opacity:1;fill-rule:nonzero;stroke:none"
           d="m 0,0 c 0,-2.662 -0.457,-5.133 -1.373,-7.419 -0.915,-2.278 -2.168,-4.264 -3.769,-5.929 -1.519,-1.6 -3.338,-2.89 -5.47,-3.888 -2.059,-0.905 -4.3,-1.362 -6.734,-1.362 -2.433,0 -4.72,0.457 -6.852,1.362 -2.122,0.998 -3.988,2.288 -5.588,3.888 -1.519,1.665 -2.737,3.651 -3.651,5.929 -0.915,2.286 -1.372,4.757 -1.372,7.419 0,2.662 0.457,5.132 1.372,7.417 0.914,2.28 2.132,4.256 3.651,5.931 1.6,1.674 3.466,2.972 5.588,3.878 2.132,0.998 4.419,1.492 6.852,1.492 2.434,0 4.675,-0.494 6.734,-1.492 2.132,-0.906 3.951,-2.204 5.47,-3.878 1.601,-1.675 2.854,-3.651 3.769,-5.931 C -0.457,5.132 0,2.662 0,0 m 10.611,0 c 0,3.952 -0.723,7.648 -2.168,11.069 -1.372,3.422 -3.312,6.386 -5.818,8.901 -2.516,2.507 -5.479,4.446 -8.901,5.818 -3.422,1.444 -7.117,2.169 -11.07,2.169 -3.961,0 -7.647,-0.725 -11.069,-2.169 -3.421,-1.372 -6.394,-3.311 -8.9,-5.818 -2.507,-2.515 -4.492,-5.479 -5.938,-8.901 C -44.698,7.648 -45.421,3.952 -45.421,0 c 0,-3.952 0.723,-7.648 2.168,-11.069 1.446,-3.349 3.431,-6.276 5.938,-8.783 2.506,-2.516 5.479,-4.491 8.9,-5.937 3.422,-1.372 7.108,-2.059 11.069,-2.059 3.953,0 7.648,0.687 11.07,2.059 3.422,1.446 6.385,3.421 8.901,5.937 2.506,2.507 4.446,5.434 5.818,8.783 1.445,3.421 2.168,7.117 2.168,11.069" />
      </g>
      <g
         transform="translate(674.094,399.0757)"
         id="g37128">
        <path
           inkscape:connector-curvature="0"
           id="path37130"
           style="fill:#309cdd;fill-opacity:1;fill-rule:nonzero;stroke:none"
           d="m 0,0 c 0,-3.202 -2.589,-5.8 -5.8,-5.8 -3.202,0 -5.791,2.598 -5.791,5.8 0,3.202 2.589,5.799 5.791,5.799 C -2.589,5.799 0,3.202 0,0" />
      </g>
      <g
         transform="translate(558.9838,444.2401)"
         id="g37132"
         style="fill:#ffffff">
        <path
           inkscape:connector-curvature="0"
           id="path37134"
           style="fill:#ffffff;fill-opacity:1;fill-rule:nonzero;stroke:none"
           d="m 0,0 -10.164,-5.708 v -12.48 h -27.481 c -19.843,0 -31.798,-9.667 -31.798,-27.279 0,-27.352 28.495,-32.512 48.759,-22.733 l -4.273,8.289 c -16.036,-7.007 -33.793,-4.025 -33.793,14.628 0,12.04 6.267,18.625 20.858,18.625 h 27.728 v -33.253 c 0,-14.701 16.841,-15.03 27.28,-9.003 L 13.1,-60.981 C 6.384,-64.385 0,-64.824 0,-58.301 v 31.643 h 13.905 v 8.47 H 0 Z" />
      </g>
      <g
         transform="translate(444.1927,345.8055)"
         id="g37136"
         style="fill:#ffffff">
        <path
           inkscape:connector-curvature="0"
           id="path37138"
           style="fill:#ffffff;fill-opacity:1;fill-rule:nonzero;stroke:none"
           d="m 0,0 h 2.543 c 1.281,0.01 2.534,-0.906 2.534,-2.203 0,-2.179 -2.452,-2.509 -2.452,-2.509 L 0,-4.729 Z M -3.668,3.11 V -16.092 H 0 l 0.046,8.098 C 6.587,-8.406 9.03,-6.129 9.03,-2.114 9.03,1.491 5.8,3.11 2.699,3.11 Z" />
      </g>
      <g
         transform="translate(510.6632,339.3021)"
         id="g37140"
         style="fill:#ffffff">
        <path
           inkscape:connector-curvature="0"
           id="path37142"
           style="fill:#ffffff;fill-opacity:1;fill-rule:nonzero;stroke:none"
           d="m 0,0 c 0,-0.934 -0.174,-1.813 -0.522,-2.626 -0.32,-0.787 -0.777,-1.482 -1.372,-2.077 -0.595,-0.593 -1.289,-1.061 -2.086,-1.409 -0.786,-0.32 -1.646,-0.484 -2.561,-0.484 -0.925,0 -1.784,0.164 -2.571,0.484 -0.796,0.348 -1.491,0.816 -2.085,1.409 -0.577,0.595 -1.034,1.29 -1.373,2.077 -0.348,0.813 -0.521,1.692 -0.521,2.626 0,0.933 0.173,1.801 0.521,2.598 0.339,0.804 0.796,1.508 1.373,2.104 0.594,0.594 1.289,1.052 2.085,1.382 0.787,0.337 1.646,0.511 2.571,0.511 0.915,0 1.775,-0.174 2.561,-0.511 0.797,-0.33 1.491,-0.788 2.086,-1.382 0.595,-0.596 1.052,-1.3 1.372,-2.104 C -0.174,1.801 0,0.933 0,0 m 3.723,0 c 0,1.372 -0.266,2.652 -0.805,3.841 -0.522,1.208 -1.254,2.25 -2.196,3.129 -0.915,0.888 -2.003,1.583 -3.265,2.086 -1.245,0.523 -2.59,0.787 -4.025,0.787 -1.446,0 -2.8,-0.264 -4.063,-0.787 C -11.875,8.553 -12.954,7.858 -13.869,6.97 -14.793,6.091 -15.515,5.049 -16.064,3.841 -16.586,2.652 -16.842,1.372 -16.842,0 c 0,-1.391 0.256,-2.681 0.778,-3.87 0.549,-1.19 1.271,-2.233 2.195,-3.128 0.915,-0.889 1.994,-1.583 3.238,-2.087 1.263,-0.503 2.617,-0.759 4.063,-0.759 1.435,0 2.78,0.256 4.025,0.759 1.262,0.504 2.35,1.198 3.265,2.087 0.942,0.895 1.674,1.938 2.196,3.128 0.539,1.189 0.805,2.479 0.805,3.87" />
      </g>
      <g
         transform="translate(529.3617,348.8807)"
         id="g37144"
         style="fill:#ffffff">
        <path
           inkscape:connector-curvature="0"
           id="path37146"
           style="fill:#ffffff;fill-opacity:1;fill-rule:nonzero;stroke:none"
           d="m 0,0 v -14.555 c 0,-0.586 -0.43,-1.236 -1.144,-1.253 l -1.143,-0.047 0.064,-3.567 1.07,-0.018 c 3.587,-0.055 4.83,3.32 4.83,4.894 v 14.517 z" />
      </g>
      <g
         transform="translate(560.6117,348.9258)"
         id="g37148"
         style="fill:#ffffff">
        <path
           inkscape:connector-curvature="0"
           id="path37150"
           style="fill:#ffffff;fill-opacity:1;fill-rule:nonzero;stroke:none"
           d="M 0,0 H -12.241 V -19.138 H 0.055 L 0,-16.056 h -8.563 v 4.996 h 7.164 v 3.082 h -7.164 v 4.84 h 8.508 z" />
      </g>
      <g
         transform="translate(590.3425,347.4347)"
         id="g37152"
         style="fill:#ffffff">
        <path
           inkscape:connector-curvature="0"
           id="path37154"
           style="fill:#ffffff;fill-opacity:1;fill-rule:nonzero;stroke:none"
           d="m 0,0 c -8.736,4.538 -17.728,0.228 -17.728,-8.05 0,-9.14 10.135,-12.158 17.838,-7.923 l -1.162,3.137 c -8.022,-4.198 -12.899,-0.292 -12.899,4.786 0,6.302 6.176,8.388 12.442,4.949 z" />
      </g>
      <g
         transform="translate(602.629,348.9258)"
         id="g37156"
         style="fill:#ffffff">
        <path
           inkscape:connector-curvature="0"
           id="path37158"
           style="fill:#ffffff;fill-opacity:1;fill-rule:nonzero;stroke:none"
           d="m 0,0 -0.082,-3.138 h 5.863 v -16.054 h 3.678 v 16.054 h 6.11 L 15.561,0 Z" />
      </g>
      <g
         transform="translate(471.4267,345.8055)"
         id="g37160"
         style="fill:#ffffff">
        <path
           inkscape:connector-curvature="0"
           id="path37162"
           style="fill:#ffffff;fill-opacity:1;fill-rule:nonzero;stroke:none"
           d="m 0,0 h 2.543 c 1.281,0.01 2.534,-0.906 2.534,-2.203 0,-2.179 -2.451,-2.509 -2.451,-2.509 L 0,-4.729 Z M -3.66,3.11 V -16.092 H 0 v 8.261 h 2.424 l 4.245,-8.261 h 4.171 l -5.058,9.259 c 2.003,0.896 3.046,2.47 3.046,4.719 0,3.752 -3.284,5.224 -6.898,5.224 z" />
      </g>
    </g>
  </g>
</svg>
